# xmcd CD database file
#
# Track frame offsets:
#	150
#	8800
#	23352
#	38565
#	51340
#	64405
#	72237
#	89367
#	102720
#	115535
#	126987
#	139072
#	154982
#	166270
#
# Disc length: 2388 seconds
#
# Revision: 0
# Processed by: cddbd v1.4PL0 Copyright (c) Steve Scherf et al.
# Submitted via: CDex 1.40Release
#
DISCID=ba09520e
DTITLE=Josh Graves - The Graves Situation
DYEAR=1900
DGENRE=Country
TTITLE0=Long Road To Espen
TTITLE1=Someone's Child
TTITLE2=South Pa
TTITLE3=Old Slew Foot
TTITLE4=If You're Gonna Do Me Wrong
TTITLE5=Jamboree
TTITLE6=Sara's Street
TTITLE7=Words Left Unspoken
TTITLE8=Shy Ann
TTITLE9=Cold Lonesome Shadow
TTITLE10=You've Got To Find Love
TTITLE11=What Memories
TTITLE12=Amazing Grace
TTITLE13=Blood On The Moon
EXTD=ID3G: 2
EXTT0=
EXTT1=
EXTT2=
EXTT3=
EXTT4=
EXTT5=
EXTT6=
EXTT7=
EXTT8=
EXTT9=
EXTT10=
EXTT11=
EXTT12=
EXTT13=
PLAYORDER=
